<svg width="287" height="209" viewBox="0 0 287 209" fill="none" xmlns="http://www.w3.org/2000/svg">
<path d="M130.155 111.072L8.16678 29.4635C3.37812 26.2599 1.41305 20.1892 3.41612 14.7872C6.21302 7.24433 15.322 4.29457 22.0095 8.76611L130.16 81.0802C138.234 86.4789 148.766 86.4789 156.84 81.0802L264.99 8.76612C271.678 4.29458 280.787 7.24433 283.584 14.7872C285.587 20.1892 283.622 26.2599 278.833 29.4635L156.845 111.072C148.769 116.475 138.231 116.475 130.155 111.072Z" fill="white"/>
<path d="M130.155 200.072L8.16678 118.463C3.37812 115.26 1.41305 109.189 3.41612 103.787C6.21302 96.2443 15.322 93.2946 22.0095 97.7661L130.16 170.08C138.234 175.479 148.766 175.479 156.84 170.08L264.99 97.7661C271.678 93.2946 280.787 96.2443 283.584 103.787C285.587 109.189 283.622 115.26 278.833 118.463L156.845 200.072C148.769 205.475 138.231 205.475 130.155 200.072Z" fill="white"/>
</svg>
