<svg width="287" height="209" viewBox="0 0 287 209" fill="none" xmlns="http://www.w3.org/2000/svg">
<path d="M130.711 110.241L8.72282 28.6323C4.31879 25.6861 2.51156 20.103 4.35374 15.1348C6.92599 8.19785 15.3033 5.48502 21.4537 9.5974L129.604 81.9115C138.015 87.5351 148.985 87.5352 157.396 81.9115L265.546 9.59742C271.697 5.48503 280.074 8.19786 282.646 15.1348C284.488 20.103 282.681 25.6861 278.277 28.6323L156.289 110.241C148.549 115.419 138.451 115.419 130.711 110.241Z" fill="#0214DC" stroke="white" stroke-width="2"/>
<path d="M130.711 199.241L8.72282 117.632C4.31879 114.686 2.51156 109.103 4.35374 104.135C6.92599 97.1979 15.3033 94.485 21.4537 98.5974L129.604 170.912C138.015 176.535 148.985 176.535 157.396 170.912L265.546 98.5974C271.697 94.485 280.074 97.1979 282.646 104.135C284.488 109.103 282.681 114.686 278.277 117.632L156.289 199.241C148.549 204.419 138.451 204.419 130.711 199.241Z" fill="#0214DC" stroke="white" stroke-width="2"/>
</svg>
